<svg width="120" height="120" viewBox="0 0 120 120" fill="none" xmlns="http://www.w3.org/2000/svg">
<rect width="120" height="120" rx="60" fill="white"/>
<mask id="path-2-outside-1_4_6" maskUnits="userSpaceOnUse" x="25" y="25" width="70" height="70" fill="black">
<rect fill="white" x="25" y="25" width="70" height="70"/>
<path d="M28.9459 80.9231C26.491 86.399 26.1637 91.2212 26.1637 93.101C26.1637 93.5914 26.5728 93.9183 26.982 93.9183C29.355 93.7548 36.3923 93.0192 42.6113 89.1779C43.5933 88.524 44.5752 87.9519 45.3935 87.2981C56.2768 79.4519 58.4862 67.4375 58.8135 64.4135C59.1408 64.1683 59.3044 64.0048 59.5499 63.7596H60.2864C60.6137 64.0048 60.7774 64.1683 61.1047 64.4952C61.3502 67.1923 62.9049 76.9183 71.9061 85.0914C72.1516 85.3365 72.4789 85.3366 72.8063 85.2548C73.2154 85.0914 73.6246 84.8462 74.1155 84.5192C74.6065 84.2741 74.6065 83.6202 74.1973 83.2933C65.3598 75.5289 64.1324 64.6586 64.0505 64.1683C79.5162 66.375 85.7353 77.6539 85.7353 77.4904C86.8809 79.125 87.0445 79.6971 87.3718 80.351C87.3718 80.351 89.7449 84.2741 90.645 89.8318C90.7268 90.3221 90.3177 90.8125 89.7449 90.7308C87.2082 90.3221 84.917 89.5866 83.1985 88.9327C82.9531 88.851 82.6257 88.851 82.4621 89.0144C82.0529 89.3414 81.6438 89.6683 81.2347 89.9135C80.7437 90.2404 80.8255 91.0577 81.3983 91.2212C84.1805 92.4471 88.3538 93.6731 93.1817 93.8366C93.6727 93.8366 94 93.4279 94 93.0192C93.5909 84.0289 89.2539 77.4087 89.2539 77.4087C88.7629 76.5096 88.1083 75.6106 87.3718 74.6298C87.3718 74.6298 79.7617 63.1058 64.5415 61.1442C64.1324 61.0625 63.8869 60.7356 63.8869 60.4087C63.8869 60 63.8869 59.6731 63.8869 59.4279C63.8869 59.1827 64.296 59.0192 64.4597 58.9375C75.5884 57.3846 82.5439 51.1731 85.5716 47.7404C85.8171 47.4952 85.8171 47.0865 85.6534 46.8414C85.4079 46.4327 85.1624 45.9423 84.917 45.5337C84.6715 45.0433 84.0168 45.0433 83.6077 45.4519C80.7437 48.9663 74.5247 54.524 64.0505 55.9952C64.1324 55.4231 65.6871 42.1827 77.3069 34.4183C78.3706 33.7644 79.3526 33.1106 80.2527 32.6202C80.2527 32.6202 84.3442 30.25 89.7449 29.4327C90.2358 29.351 90.7268 29.8413 90.645 30.3317C90.2359 33.0288 89.4176 35.3173 88.7629 37.0337C88.6811 37.2788 88.6811 37.6058 88.8448 37.7692C89.1721 38.1779 89.4994 38.6683 89.7449 39.0769C90.0722 39.5673 90.8905 39.4856 91.136 38.9135C93.509 33.5192 93.8363 28.7788 93.8363 26.899C93.8363 26.4086 93.4272 26.0817 93.018 26.0817C90.645 26.2452 83.6077 26.9808 77.3887 30.8221C76.3249 31.476 75.2611 32.1298 74.6065 32.7019C63.7232 40.5481 61.5138 52.5625 61.1865 55.5865C60.8592 55.8317 60.6955 55.9952 60.4501 56.2404H59.7136C59.3863 55.9952 59.2226 55.8317 58.8953 55.5048C58.6498 52.8077 57.0951 43.1635 48.0939 34.9087C47.8484 34.6635 47.5211 34.6635 47.1937 34.8269C46.7846 35.0721 46.2936 35.3173 45.8845 35.5625C45.3935 35.8077 45.3935 36.4615 45.8027 36.7885C54.6402 44.5529 55.8676 55.4231 55.9495 55.9135C40.4838 53.7885 34.5102 42.6731 34.3466 42.5096C33.7738 41.6106 33.201 40.7115 32.6282 39.649C32.6282 39.649 30.3369 35.8077 29.355 30.1683C29.7641 29.7596 29.846 29.6779 30.2551 29.2692C32.7918 29.6779 35.083 30.4135 36.8015 31.0673C37.0469 31.149 37.3743 31.149 37.5379 30.9038C37.9471 30.5769 38.3562 30.25 38.7653 30.0048C39.2563 29.6779 39.1745 28.8606 38.6017 28.6154C35.8195 27.3894 31.6462 26.1635 26.8183 26C26.3273 26 26 26.4087 26 26.8173C26.4091 35.8077 30.7461 42.4279 30.7461 42.4279C31.2371 43.3269 31.8917 44.1442 32.6282 45.2067C32.6282 45.2067 40.2383 56.7308 55.4585 58.6923C55.8676 58.774 56.1131 59.101 56.1131 59.4279C56.1131 59.7548 56.1131 60.0817 56.1131 60.3269C56.1131 60.6539 55.7858 60.899 55.6221 60.899C44.4934 62.3702 37.5379 68.6635 34.5102 72.0962C34.3466 72.3414 34.2648 72.5865 34.3466 72.9135C34.5102 73.4039 34.8375 73.8942 35.083 74.3846C35.3285 74.875 35.9832 74.875 36.3105 74.4663C39.1745 71.0337 45.3935 65.3125 55.9495 63.8413C55.8676 64.4135 54.3129 77.6538 42.6931 85.4183C42.284 85.7452 41.793 85.9904 41.3839 86.3173C40.8929 86.6442 35.7377 89.5048 30.2551 90.4039C29.7641 90.4856 29.2732 89.9952 29.355 89.5048C29.7641 86.726 30.5824 84.3558 31.3189 82.7212C31.4007 82.476 31.4007 82.1491 31.2371 81.9856C30.9097 81.5769 30.5824 81.0865 30.337 80.6779C29.9278 80.2692 29.1913 80.351 28.9459 80.9231ZM32.6282 80.1875C34.1829 82.2308 36.1468 84.1106 37.7016 85.5C37.9471 85.7452 38.3562 85.7452 38.6017 85.5817C39.0108 85.3365 39.5018 85.0914 39.9109 84.8462C40.3201 84.601 40.4019 83.9471 39.9928 83.6202C36.7196 80.8414 34.4284 77.4087 34.4284 77.4087C33.8556 76.5914 33.2828 75.6106 32.71 74.5481C29.846 68.9904 29.1095 63.9231 29.0277 60.4904C29.0277 59.0192 29.1095 57.6298 29.2732 56.4038C29.355 56.1586 29.355 55.9952 29.355 55.9952C29.7641 52.8894 30.5006 50.3558 31.2371 48.5577C31.3189 48.3125 31.3189 47.9856 31.1552 47.8221C30.8279 47.4952 30.5824 47.0048 30.2551 46.5962C29.9278 46.1058 29.1095 46.1875 28.864 46.7596C27.9639 49.0481 26.9001 52.1538 26.4091 55.9952C26.4091 55.9952 24.4452 66.4567 30.9097 77.3269C31.4007 78.4712 32.0554 79.4519 32.6282 80.1875ZM87.29 39.7308C85.7352 37.6875 83.7714 35.8077 82.2166 34.4183C81.9711 34.1731 81.6438 34.1731 81.3165 34.3365C80.9073 34.5817 80.4164 34.8269 80.0072 35.0721C79.5981 35.3173 79.5162 35.9711 79.9254 36.2981C83.1985 39.0769 85.4898 42.5096 85.4898 42.5096C86.0626 43.2452 86.6354 44.226 87.2082 45.3702C90.0722 50.9279 90.8087 55.9952 90.8905 59.4279C90.8905 60.899 90.8087 62.2885 90.645 63.5144C90.5632 63.7596 90.5632 63.9231 90.5632 63.9231C90.154 67.1106 89.4176 69.6442 88.6811 71.4423C88.5993 71.6875 88.5993 72.0144 88.8448 72.2596C89.1721 72.6683 89.4994 73.0769 89.7449 73.4856C90.0722 73.976 90.8905 73.8942 91.136 73.3221C92.0361 71.0337 93.0999 67.8462 93.5909 64.0048C93.5909 64.0048 95.5548 53.5433 89.0903 42.6731C88.5993 41.6106 87.9446 40.6298 87.29 39.7308ZM45.2298 32.7836C45.5572 32.6202 46.0481 32.2933 46.3754 32.1298C57.5042 26.899 67.16 29.4327 71.7425 31.3125C71.988 31.3942 72.3153 31.3942 72.479 31.2308C72.8881 30.9038 73.2972 30.5769 73.7882 30.25C74.2792 29.9231 74.1974 29.1058 73.6246 28.8606C67.0782 26 60.2864 26 59.8772 26C59.3863 26 50.2214 26 42.4477 30.7404C41.5475 31.3125 40.7292 31.8846 39.8291 32.5385C39.8291 32.5385 37.2106 34.5 34.7557 37.0337C34.5102 37.2788 34.5102 37.6058 34.6739 37.9327C34.9194 38.4231 35.1649 38.9135 35.4103 39.3221C35.6558 39.8125 36.3105 39.8125 36.6378 39.4856C38.1107 37.851 40.1564 35.8894 42.5295 34.3365C43.4296 33.7644 44.3297 33.274 45.2298 32.7836ZM80.0072 87.3798C80.0072 87.3798 82.5439 85.4183 85.0806 82.8846C85.3261 82.6394 85.3261 82.3125 85.2443 81.9856C84.9988 81.4952 84.7533 81.0865 84.5078 80.5962C84.2623 80.1058 83.6077 80.1058 83.2804 80.5144C81.8893 82.0673 80.3345 83.7019 78.0433 85.2548C77.3069 85.8269 75.9158 86.726 74.6883 87.3798C63.0686 93.3462 53.0036 90.649 48.2575 88.7692C48.012 88.6875 47.6847 88.6875 47.5211 88.851C47.1119 89.1779 46.6209 89.5048 46.2118 89.75C45.7208 90.0769 45.8026 90.8942 46.3754 91.1394C52.9218 94 59.7136 94 60.1228 94C60.6137 94 69.7786 94 77.5523 89.2596C78.2888 88.6058 79.1889 88.0337 80.0072 87.3798ZM59.9591 59.1827C60.2864 59.5096 60.4501 59.6731 60.7774 60C60.4501 60.3269 60.2864 60.4904 59.9591 60.7356C59.5499 60.7356 59.1408 60.4087 59.1408 59.9183C59.4681 59.6731 59.6318 59.5096 59.9591 59.1827Z"/>
</mask>
<path d="M28.9459 80.9231C26.491 86.399 26.1637 91.2212 26.1637 93.101C26.1637 93.5914 26.5728 93.9183 26.982 93.9183C29.355 93.7548 36.3923 93.0192 42.6113 89.1779C43.5933 88.524 44.5752 87.9519 45.3935 87.2981C56.2768 79.4519 58.4862 67.4375 58.8135 64.4135C59.1408 64.1683 59.3044 64.0048 59.5499 63.7596H60.2864C60.6137 64.0048 60.7774 64.1683 61.1047 64.4952C61.3502 67.1923 62.9049 76.9183 71.9061 85.0914C72.1516 85.3365 72.4789 85.3366 72.8063 85.2548C73.2154 85.0914 73.6246 84.8462 74.1155 84.5192C74.6065 84.2741 74.6065 83.6202 74.1973 83.2933C65.3598 75.5289 64.1324 64.6586 64.0505 64.1683C79.5162 66.375 85.7353 77.6539 85.7353 77.4904C86.8809 79.125 87.0445 79.6971 87.3718 80.351C87.3718 80.351 89.7449 84.2741 90.645 89.8318C90.7268 90.3221 90.3177 90.8125 89.7449 90.7308C87.2082 90.3221 84.917 89.5866 83.1985 88.9327C82.9531 88.851 82.6257 88.851 82.4621 89.0144C82.0529 89.3414 81.6438 89.6683 81.2347 89.9135C80.7437 90.2404 80.8255 91.0577 81.3983 91.2212C84.1805 92.4471 88.3538 93.6731 93.1817 93.8366C93.6727 93.8366 94 93.4279 94 93.0192C93.5909 84.0289 89.2539 77.4087 89.2539 77.4087C88.7629 76.5096 88.1083 75.6106 87.3718 74.6298C87.3718 74.6298 79.7617 63.1058 64.5415 61.1442C64.1324 61.0625 63.8869 60.7356 63.8869 60.4087C63.8869 60 63.8869 59.6731 63.8869 59.4279C63.8869 59.1827 64.296 59.0192 64.4597 58.9375C75.5884 57.3846 82.5439 51.1731 85.5716 47.7404C85.8171 47.4952 85.8171 47.0865 85.6534 46.8414C85.4079 46.4327 85.1624 45.9423 84.917 45.5337C84.6715 45.0433 84.0168 45.0433 83.6077 45.4519C80.7437 48.9663 74.5247 54.524 64.0505 55.9952C64.1324 55.4231 65.6871 42.1827 77.3069 34.4183C78.3706 33.7644 79.3526 33.1106 80.2527 32.6202C80.2527 32.6202 84.3442 30.25 89.7449 29.4327C90.2358 29.351 90.7268 29.8413 90.645 30.3317C90.2359 33.0288 89.4176 35.3173 88.7629 37.0337C88.6811 37.2788 88.6811 37.6058 88.8448 37.7692C89.1721 38.1779 89.4994 38.6683 89.7449 39.0769C90.0722 39.5673 90.8905 39.4856 91.136 38.9135C93.509 33.5192 93.8363 28.7788 93.8363 26.899C93.8363 26.4086 93.4272 26.0817 93.018 26.0817C90.645 26.2452 83.6077 26.9808 77.3887 30.8221C76.3249 31.476 75.2611 32.1298 74.6065 32.7019C63.7232 40.5481 61.5138 52.5625 61.1865 55.5865C60.8592 55.8317 60.6955 55.9952 60.4501 56.2404H59.7136C59.3863 55.9952 59.2226 55.8317 58.8953 55.5048C58.6498 52.8077 57.0951 43.1635 48.0939 34.9087C47.8484 34.6635 47.5211 34.6635 47.1937 34.8269C46.7846 35.0721 46.2936 35.3173 45.8845 35.5625C45.3935 35.8077 45.3935 36.4615 45.8027 36.7885C54.6402 44.5529 55.8676 55.4231 55.9495 55.9135C40.4838 53.7885 34.5102 42.6731 34.3466 42.5096C33.7738 41.6106 33.201 40.7115 32.6282 39.649C32.6282 39.649 30.3369 35.8077 29.355 30.1683C29.7641 29.7596 29.846 29.6779 30.2551 29.2692C32.7918 29.6779 35.083 30.4135 36.8015 31.0673C37.0469 31.149 37.3743 31.149 37.5379 30.9038C37.9471 30.5769 38.3562 30.25 38.7653 30.0048C39.2563 29.6779 39.1745 28.8606 38.6017 28.6154C35.8195 27.3894 31.6462 26.1635 26.8183 26C26.3273 26 26 26.4087 26 26.8173C26.4091 35.8077 30.7461 42.4279 30.7461 42.4279C31.2371 43.3269 31.8917 44.1442 32.6282 45.2067C32.6282 45.2067 40.2383 56.7308 55.4585 58.6923C55.8676 58.774 56.1131 59.101 56.1131 59.4279C56.1131 59.7548 56.1131 60.0817 56.1131 60.3269C56.1131 60.6539 55.7858 60.899 55.6221 60.899C44.4934 62.3702 37.5379 68.6635 34.5102 72.0962C34.3466 72.3414 34.2648 72.5865 34.3466 72.9135C34.5102 73.4039 34.8375 73.8942 35.083 74.3846C35.3285 74.875 35.9832 74.875 36.3105 74.4663C39.1745 71.0337 45.3935 65.3125 55.9495 63.8413C55.8676 64.4135 54.3129 77.6538 42.6931 85.4183C42.284 85.7452 41.793 85.9904 41.3839 86.3173C40.8929 86.6442 35.7377 89.5048 30.2551 90.4039C29.7641 90.4856 29.2732 89.9952 29.355 89.5048C29.7641 86.726 30.5824 84.3558 31.3189 82.7212C31.4007 82.476 31.4007 82.1491 31.2371 81.9856C30.9097 81.5769 30.5824 81.0865 30.337 80.6779C29.9278 80.2692 29.1913 80.351 28.9459 80.9231ZM32.6282 80.1875C34.1829 82.2308 36.1468 84.1106 37.7016 85.5C37.9471 85.7452 38.3562 85.7452 38.6017 85.5817C39.0108 85.3365 39.5018 85.0914 39.9109 84.8462C40.3201 84.601 40.4019 83.9471 39.9928 83.6202C36.7196 80.8414 34.4284 77.4087 34.4284 77.4087C33.8556 76.5914 33.2828 75.6106 32.71 74.5481C29.846 68.9904 29.1095 63.9231 29.0277 60.4904C29.0277 59.0192 29.1095 57.6298 29.2732 56.4038C29.355 56.1586 29.355 55.9952 29.355 55.9952C29.7641 52.8894 30.5006 50.3558 31.2371 48.5577C31.3189 48.3125 31.3189 47.9856 31.1552 47.8221C30.8279 47.4952 30.5824 47.0048 30.2551 46.5962C29.9278 46.1058 29.1095 46.1875 28.864 46.7596C27.9639 49.0481 26.9001 52.1538 26.4091 55.9952C26.4091 55.9952 24.4452 66.4567 30.9097 77.3269C31.4007 78.4712 32.0554 79.4519 32.6282 80.1875ZM87.29 39.7308C85.7352 37.6875 83.7714 35.8077 82.2166 34.4183C81.9711 34.1731 81.6438 34.1731 81.3165 34.3365C80.9073 34.5817 80.4164 34.8269 80.0072 35.0721C79.5981 35.3173 79.5162 35.9711 79.9254 36.2981C83.1985 39.0769 85.4898 42.5096 85.4898 42.5096C86.0626 43.2452 86.6354 44.226 87.2082 45.3702C90.0722 50.9279 90.8087 55.9952 90.8905 59.4279C90.8905 60.899 90.8087 62.2885 90.645 63.5144C90.5632 63.7596 90.5632 63.9231 90.5632 63.9231C90.154 67.1106 89.4176 69.6442 88.6811 71.4423C88.5993 71.6875 88.5993 72.0144 88.8448 72.2596C89.1721 72.6683 89.4994 73.0769 89.7449 73.4856C90.0722 73.976 90.8905 73.8942 91.136 73.3221C92.0361 71.0337 93.0999 67.8462 93.5909 64.0048C93.5909 64.0048 95.5548 53.5433 89.0903 42.6731C88.5993 41.6106 87.9446 40.6298 87.29 39.7308ZM45.2298 32.7836C45.5572 32.6202 46.0481 32.2933 46.3754 32.1298C57.5042 26.899 67.16 29.4327 71.7425 31.3125C71.988 31.3942 72.3153 31.3942 72.479 31.2308C72.8881 30.9038 73.2972 30.5769 73.7882 30.25C74.2792 29.9231 74.1974 29.1058 73.6246 28.8606C67.0782 26 60.2864 26 59.8772 26C59.3863 26 50.2214 26 42.4477 30.7404C41.5475 31.3125 40.7292 31.8846 39.8291 32.5385C39.8291 32.5385 37.2106 34.5 34.7557 37.0337C34.5102 37.2788 34.5102 37.6058 34.6739 37.9327C34.9194 38.4231 35.1649 38.9135 35.4103 39.3221C35.6558 39.8125 36.3105 39.8125 36.6378 39.4856C38.1107 37.851 40.1564 35.8894 42.5295 34.3365C43.4296 33.7644 44.3297 33.274 45.2298 32.7836ZM80.0072 87.3798C80.0072 87.3798 82.5439 85.4183 85.0806 82.8846C85.3261 82.6394 85.3261 82.3125 85.2443 81.9856C84.9988 81.4952 84.7533 81.0865 84.5078 80.5962C84.2623 80.1058 83.6077 80.1058 83.2804 80.5144C81.8893 82.0673 80.3345 83.7019 78.0433 85.2548C77.3069 85.8269 75.9158 86.726 74.6883 87.3798C63.0686 93.3462 53.0036 90.649 48.2575 88.7692C48.012 88.6875 47.6847 88.6875 47.5211 88.851C47.1119 89.1779 46.6209 89.5048 46.2118 89.75C45.7208 90.0769 45.8026 90.8942 46.3754 91.1394C52.9218 94 59.7136 94 60.1228 94C60.6137 94 69.7786 94 77.5523 89.2596C78.2888 88.6058 79.1889 88.0337 80.0072 87.3798ZM59.9591 59.1827C60.2864 59.5096 60.4501 59.6731 60.7774 60C60.4501 60.3269 60.2864 60.4904 59.9591 60.7356C59.5499 60.7356 59.1408 60.4087 59.1408 59.9183C59.4681 59.6731 59.6318 59.5096 59.9591 59.1827Z" fill="black"/>
<path d="M28.9459 80.9231C26.491 86.399 26.1637 91.2212 26.1637 93.101C26.1637 93.5914 26.5728 93.9183 26.982 93.9183C29.355 93.7548 36.3923 93.0192 42.6113 89.1779C43.5933 88.524 44.5752 87.9519 45.3935 87.2981C56.2768 79.4519 58.4862 67.4375 58.8135 64.4135C59.1408 64.1683 59.3044 64.0048 59.5499 63.7596H60.2864C60.6137 64.0048 60.7774 64.1683 61.1047 64.4952C61.3502 67.1923 62.9049 76.9183 71.9061 85.0914C72.1516 85.3365 72.4789 85.3366 72.8063 85.2548C73.2154 85.0914 73.6246 84.8462 74.1155 84.5192C74.6065 84.2741 74.6065 83.6202 74.1973 83.2933C65.3598 75.5289 64.1324 64.6586 64.0505 64.1683C79.5162 66.375 85.7353 77.6539 85.7353 77.4904C86.8809 79.125 87.0445 79.6971 87.3718 80.351C87.3718 80.351 89.7449 84.2741 90.645 89.8318C90.7268 90.3221 90.3177 90.8125 89.7449 90.7308C87.2082 90.3221 84.917 89.5866 83.1985 88.9327C82.9531 88.851 82.6257 88.851 82.4621 89.0144C82.0529 89.3414 81.6438 89.6683 81.2347 89.9135C80.7437 90.2404 80.8255 91.0577 81.3983 91.2212C84.1805 92.4471 88.3538 93.6731 93.1817 93.8366C93.6727 93.8366 94 93.4279 94 93.0192C93.5909 84.0289 89.2539 77.4087 89.2539 77.4087C88.7629 76.5096 88.1083 75.6106 87.3718 74.6298C87.3718 74.6298 79.7617 63.1058 64.5415 61.1442C64.1324 61.0625 63.8869 60.7356 63.8869 60.4087C63.8869 60 63.8869 59.6731 63.8869 59.4279C63.8869 59.1827 64.296 59.0192 64.4597 58.9375C75.5884 57.3846 82.5439 51.1731 85.5716 47.7404C85.8171 47.4952 85.8171 47.0865 85.6534 46.8414C85.4079 46.4327 85.1624 45.9423 84.917 45.5337C84.6715 45.0433 84.0168 45.0433 83.6077 45.4519C80.7437 48.9663 74.5247 54.524 64.0505 55.9952C64.1324 55.4231 65.6871 42.1827 77.3069 34.4183C78.3706 33.7644 79.3526 33.1106 80.2527 32.6202C80.2527 32.6202 84.3442 30.25 89.7449 29.4327C90.2358 29.351 90.7268 29.8413 90.645 30.3317C90.2359 33.0288 89.4176 35.3173 88.7629 37.0337C88.6811 37.2788 88.6811 37.6058 88.8448 37.7692C89.1721 38.1779 89.4994 38.6683 89.7449 39.0769C90.0722 39.5673 90.8905 39.4856 91.136 38.9135C93.509 33.5192 93.8363 28.7788 93.8363 26.899C93.8363 26.4086 93.4272 26.0817 93.018 26.0817C90.645 26.2452 83.6077 26.9808 77.3887 30.8221C76.3249 31.476 75.2611 32.1298 74.6065 32.7019C63.7232 40.5481 61.5138 52.5625 61.1865 55.5865C60.8592 55.8317 60.6955 55.9952 60.4501 56.2404H59.7136C59.3863 55.9952 59.2226 55.8317 58.8953 55.5048C58.6498 52.8077 57.0951 43.1635 48.0939 34.9087C47.8484 34.6635 47.5211 34.6635 47.1937 34.8269C46.7846 35.0721 46.2936 35.3173 45.8845 35.5625C45.3935 35.8077 45.3935 36.4615 45.8027 36.7885C54.6402 44.5529 55.8676 55.4231 55.9495 55.9135C40.4838 53.7885 34.5102 42.6731 34.3466 42.5096C33.7738 41.6106 33.201 40.7115 32.6282 39.649C32.6282 39.649 30.3369 35.8077 29.355 30.1683C29.7641 29.7596 29.846 29.6779 30.2551 29.2692C32.7918 29.6779 35.083 30.4135 36.8015 31.0673C37.0469 31.149 37.3743 31.149 37.5379 30.9038C37.9471 30.5769 38.3562 30.25 38.7653 30.0048C39.2563 29.6779 39.1745 28.8606 38.6017 28.6154C35.8195 27.3894 31.6462 26.1635 26.8183 26C26.3273 26 26 26.4087 26 26.8173C26.4091 35.8077 30.7461 42.4279 30.7461 42.4279C31.2371 43.3269 31.8917 44.1442 32.6282 45.2067C32.6282 45.2067 40.2383 56.7308 55.4585 58.6923C55.8676 58.774 56.1131 59.101 56.1131 59.4279C56.1131 59.7548 56.1131 60.0817 56.1131 60.3269C56.1131 60.6539 55.7858 60.899 55.6221 60.899C44.4934 62.3702 37.5379 68.6635 34.5102 72.0962C34.3466 72.3414 34.2648 72.5865 34.3466 72.9135C34.5102 73.4039 34.8375 73.8942 35.083 74.3846C35.3285 74.875 35.9832 74.875 36.3105 74.4663C39.1745 71.0337 45.3935 65.3125 55.9495 63.8413C55.8676 64.4135 54.3129 77.6538 42.6931 85.4183C42.284 85.7452 41.793 85.9904 41.3839 86.3173C40.8929 86.6442 35.7377 89.5048 30.2551 90.4039C29.7641 90.4856 29.2732 89.9952 29.355 89.5048C29.7641 86.726 30.5824 84.3558 31.3189 82.7212C31.4007 82.476 31.4007 82.1491 31.2371 81.9856C30.9097 81.5769 30.5824 81.0865 30.337 80.6779C29.9278 80.2692 29.1913 80.351 28.9459 80.9231ZM32.6282 80.1875C34.1829 82.2308 36.1468 84.1106 37.7016 85.5C37.9471 85.7452 38.3562 85.7452 38.6017 85.5817C39.0108 85.3365 39.5018 85.0914 39.9109 84.8462C40.3201 84.601 40.4019 83.9471 39.9928 83.6202C36.7196 80.8414 34.4284 77.4087 34.4284 77.4087C33.8556 76.5914 33.2828 75.6106 32.71 74.5481C29.846 68.9904 29.1095 63.9231 29.0277 60.4904C29.0277 59.0192 29.1095 57.6298 29.2732 56.4038C29.355 56.1586 29.355 55.9952 29.355 55.9952C29.7641 52.8894 30.5006 50.3558 31.2371 48.5577C31.3189 48.3125 31.3189 47.9856 31.1552 47.8221C30.8279 47.4952 30.5824 47.0048 30.2551 46.5962C29.9278 46.1058 29.1095 46.1875 28.864 46.7596C27.9639 49.0481 26.9001 52.1538 26.4091 55.9952C26.4091 55.9952 24.4452 66.4567 30.9097 77.3269C31.4007 78.4712 32.0554 79.4519 32.6282 80.1875ZM87.29 39.7308C85.7352 37.6875 83.7714 35.8077 82.2166 34.4183C81.9711 34.1731 81.6438 34.1731 81.3165 34.3365C80.9073 34.5817 80.4164 34.8269 80.0072 35.0721C79.5981 35.3173 79.5162 35.9711 79.9254 36.2981C83.1985 39.0769 85.4898 42.5096 85.4898 42.5096C86.0626 43.2452 86.6354 44.226 87.2082 45.3702C90.0722 50.9279 90.8087 55.9952 90.8905 59.4279C90.8905 60.899 90.8087 62.2885 90.645 63.5144C90.5632 63.7596 90.5632 63.9231 90.5632 63.9231C90.154 67.1106 89.4176 69.6442 88.6811 71.4423C88.5993 71.6875 88.5993 72.0144 88.8448 72.2596C89.1721 72.6683 89.4994 73.0769 89.7449 73.4856C90.0722 73.976 90.8905 73.8942 91.136 73.3221C92.0361 71.0337 93.0999 67.8462 93.5909 64.0048C93.5909 64.0048 95.5548 53.5433 89.0903 42.6731C88.5993 41.6106 87.9446 40.6298 87.29 39.7308ZM45.2298 32.7836C45.5572 32.6202 46.0481 32.2933 46.3754 32.1298C57.5042 26.899 67.16 29.4327 71.7425 31.3125C71.988 31.3942 72.3153 31.3942 72.479 31.2308C72.8881 30.9038 73.2972 30.5769 73.7882 30.25C74.2792 29.9231 74.1974 29.1058 73.6246 28.8606C67.0782 26 60.2864 26 59.8772 26C59.3863 26 50.2214 26 42.4477 30.7404C41.5475 31.3125 40.7292 31.8846 39.8291 32.5385C39.8291 32.5385 37.2106 34.5 34.7557 37.0337C34.5102 37.2788 34.5102 37.6058 34.6739 37.9327C34.9194 38.4231 35.1649 38.9135 35.4103 39.3221C35.6558 39.8125 36.3105 39.8125 36.6378 39.4856C38.1107 37.851 40.1564 35.8894 42.5295 34.3365C43.4296 33.7644 44.3297 33.274 45.2298 32.7836ZM80.0072 87.3798C80.0072 87.3798 82.5439 85.4183 85.0806 82.8846C85.3261 82.6394 85.3261 82.3125 85.2443 81.9856C84.9988 81.4952 84.7533 81.0865 84.5078 80.5962C84.2623 80.1058 83.6077 80.1058 83.2804 80.5144C81.8893 82.0673 80.3345 83.7019 78.0433 85.2548C77.3069 85.8269 75.9158 86.726 74.6883 87.3798C63.0686 93.3462 53.0036 90.649 48.2575 88.7692C48.012 88.6875 47.6847 88.6875 47.5211 88.851C47.1119 89.1779 46.6209 89.5048 46.2118 89.75C45.7208 90.0769 45.8026 90.8942 46.3754 91.1394C52.9218 94 59.7136 94 60.1228 94C60.6137 94 69.7786 94 77.5523 89.2596C78.2888 88.6058 79.1889 88.0337 80.0072 87.3798ZM59.9591 59.1827C60.2864 59.5096 60.4501 59.6731 60.7774 60C60.4501 60.3269 60.2864 60.4904 59.9591 60.7356C59.5499 60.7356 59.1408 60.4087 59.1408 59.9183C59.4681 59.6731 59.6318 59.5096 59.9591 59.1827Z" stroke="black" stroke-width="2" mask="url(#path-2-outside-1_4_6)"/>
</svg>
