<svg width="40" height="17" viewBox="0 0 40 17" fill="none" xmlns="http://www.w3.org/2000/svg">
<path d="M7.30698 2.11508C7.76243 1.54576 8.07126 0.781152 7.98984 0C7.32352 0.0330887 6.51057 0.43956 6.03955 1.00953C5.61685 1.49742 5.24282 2.29382 5.34014 3.04221C6.08821 3.10709 6.83562 2.6685 7.30698 2.11508Z" fill="black"/>
<path d="M7.98152 3.18868C6.89478 3.1238 5.97154 3.80504 5.45282 3.80504C4.93378 3.80504 4.13933 3.22112 3.27999 3.23702C2.16179 3.25324 1.12436 3.88582 0.556658 4.89145C-0.610531 6.90272 0.248479 9.88719 1.38388 11.5254C1.93503 12.3364 2.5994 13.2285 3.47463 13.1964C4.30185 13.1639 4.62593 12.6611 5.63092 12.6611C6.63558 12.6611 6.92754 13.1964 7.8031 13.1802C8.71077 13.1639 9.27847 12.3692 9.82962 11.5582C10.4622 10.6336 10.7207 9.74154 10.737 9.69288C10.7207 9.67666 8.9865 9.01132 8.97029 7.01626C8.95407 5.34561 10.3321 4.55083 10.397 4.50185C9.61876 3.35088 8.40291 3.22112 7.98119 3.18868" fill="black"/>
<path d="M18.8119 0.929932C21.1729 0.929932 22.8173 2.55744 22.8173 4.92685C22.8173 7.30469 21.1391 8.94063 18.7529 8.94063H16.1389V13.0981H14.2502V0.929932H18.8119ZM16.1389 7.3553H18.3058C19.9505 7.3553 20.8861 6.47001 20.8861 4.93528C20.8861 3.40088 19.9502 2.5237 18.3143 2.5237H16.1389V7.3553Z" fill="black"/>
<path d="M23.2862 10.5761C23.2862 9.01608 24.4751 8.12236 26.6674 7.98741L29.02 7.84402V7.16928C29.02 6.1831 28.3708 5.6433 27.2156 5.6433C26.2626 5.6433 25.5709 6.13217 25.4282 6.88251H23.7245C23.7754 5.30593 25.2592 4.15918 27.2663 4.15918C29.4248 4.15918 30.833 5.28906 30.833 7.04308V13.0973H29.0878V11.6385H29.0456C28.548 12.5913 27.4515 13.1898 26.2626 13.1898C24.5089 13.1898 23.2862 12.1446 23.2862 10.5761ZM29.02 9.79204V9.10886L26.9204 9.24381C25.7396 9.31971 25.1246 9.75798 25.1246 10.5252C25.1246 11.2674 25.7653 11.7482 26.7686 11.7482C28.05 11.7482 29.02 10.93 29.02 9.79204Z" fill="black"/>
<path d="M32.4375 16.352V14.8935C32.5556 14.91 32.842 14.9269 32.9939 14.9269C33.8285 14.9269 34.3009 14.5733 34.5876 13.6621L34.7563 13.1226L31.5603 4.2688H33.5333L35.7597 11.4529H35.8019L38.0279 4.2688H39.9506L36.6365 13.5693C35.8774 15.7029 35.009 16.4029 33.171 16.4029C33.0276 16.4029 32.5637 16.3861 32.4375 16.352Z" fill="black"/>
</svg>
